<svg xmlns="http://www.w3.org/2000/svg" width="59.743" height="24.986" viewBox="0 0 59.743 24.986">
    <g transform="translate(0 -0.217)">
        <path d="M7.533.217,7.294.373l-7.08,4.6L0,5.108V16.781H.935V5.612L7.547,1.32V.225Z" fill="#fff"
            fill-rule="evenodd" />
        <path d="M6.612,22.78h.935V1.316H6.612Z" fill="#fff" fill-rule="evenodd" />
        <path d="M0,17.738V25.2H8.484v-.935H.935V17.738Z" fill="#fff" fill-rule="evenodd" />
        <g transform="translate(0 0.039)">
            <path d="M14.219,25.16H10.746v-.935h2.49l.007-13.411L8.892,8.8V7.612c1.711.839,3.617,1.747,5.334,2.577Z"
                fill="#fff" fill-rule="evenodd" />
            <path d="M.483,18.634H4.264V17.7H.483Z" fill="#fff" fill-rule="evenodd" />
            <path d="M3.571,21.435h.935V17.7H3.571Z" fill="#fff" fill-rule="evenodd" />
            <path
                d="M4.049,21.511a.547.547,0,1,0,.547.547.547.547,0,0,0-.547-.547m0-.623a1.171,1.171,0,1,1-1.171,1.171,1.171,1.171,0,0,1,1.171-1.171"
                fill="#fff" fill-rule="evenodd" />
            <path d="M.483,16.744H4.264v-.935H.483Z" fill="#fff" fill-rule="evenodd" />
            <path d="M3.473,16.744h.935V9.766H3.473Z" fill="#fff" fill-rule="evenodd" />
            <path
                d="M3.941,8.5a.547.547,0,1,0,.547.547A.548.548,0,0,0,3.941,8.5m0-.623A1.171,1.171,0,1,1,2.77,9.047a1.17,1.17,0,0,1,1.171-1.17"
                fill="#fff" fill-rule="evenodd" />
            <path d="M10.746,25.16h.935V17.079h-.935Z" fill="#fff" fill-rule="evenodd" />
            <path
                d="M11.213,15.848a.548.548,0,1,0,.547.547.547.547,0,0,0-.547-.547m0-.623a1.171,1.171,0,1,1-1.171,1.17,1.171,1.171,0,0,1,1.171-1.17"
                fill="#fff" fill-rule="evenodd" />
            <path d="M9.2,7.765v17.4H8.269V7.307Z" fill="#fff" fill-rule="evenodd" />
            <path
                d="M17.348,20.61V8.165H19.12V20.61Zm4.876,0V16.094c0-1.94-.056-3.47-.112-4.608H23.7l.075,1.437a3.6,3.6,0,0,1,3.134-1.6,3.057,3.057,0,0,1,3.153,2.22,9.572,9.572,0,0,1,.243,2.817V20.61H28.6V16.5a8.021,8.021,0,0,0-.149-2.258,1.886,1.886,0,0,0-1.922-1.493,2.511,2.511,0,0,0-2.407,1.884,8.436,8.436,0,0,0-.205,2.631v3.34Zm10.25-.261.187-1.661a5.393,5.393,0,0,0,2.444.653c1.549,0,2.556-.84,2.556-2.108,0-.933-.578-1.567-1.922-2.183l-.69-.317c-1.959-.9-2.78-1.866-2.78-3.414,0-2.034,1.567-3.4,3.918-3.4a8.34,8.34,0,0,1,2.724.448l-.224,1.567a6.5,6.5,0,0,0-2.332-.5c-1.325,0-2.239.69-2.239,1.717,0,.858.485,1.362,2.015,2.127l.672.336c2.09,1.045,2.761,1.9,2.761,3.489,0,2.239-1.7,3.75-4.235,3.75A7.844,7.844,0,0,1,32.473,20.348ZM41.482,9.3V7.437h1.847V9.3Zm.112,11.307V11.486h1.7V20.61Zm5.38-1.082a5.627,5.627,0,0,1-.354-2.593V12.811H44.511V11.486H46.62V9.434l1.7-.578v2.631h2.407v1.325H48.318v3.62a9.555,9.555,0,0,0,.093,1.791,1.3,1.3,0,0,0,1.4,1.063,2.457,2.457,0,0,0,1.1-.28V20.46a5.178,5.178,0,0,1-1.567.261A2.536,2.536,0,0,1,46.974,19.527Zm4.484-3.564c0-2.836,1.717-4.72,4.31-4.72,2.519,0,3.974,1.81,3.974,4.944a2.2,2.2,0,0,1-.019.3H53.156a3.017,3.017,0,0,0,3.06,2.929,5.333,5.333,0,0,0,2.836-.858V20.18a6.7,6.7,0,0,1-2.929.672C53.268,20.852,51.459,18.949,51.459,15.964Zm1.717-.8h4.87a3.389,3.389,0,0,0-.466-1.567,2.2,2.2,0,0,0-1.866-1.008A2.644,2.644,0,0,0,53.175,15.162Z"
                fill="#fff" fill-rule="evenodd" />
        </g>
    </g>
</svg>